<?xml version="1.0" standalone="no"?>
<!DOCTYPE svg PUBLIC "-//W3C//DTD SVG 20010904//EN"
 "http://www.w3.org/TR/2001/REC-SVG-20010904/DTD/svg10.dtd">
<svg version="1.0" xmlns="http://www.w3.org/2000/svg"
 width="20.000000pt" height="32.000000pt" viewBox="0 0 32.000000 32.000000"
 preserveAspectRatio="xMidYMid meet">

<g transform="translate(0.000000,32.000000) scale(0.100000,-0.100000)"
fill="#000000" stroke="none">
<path d="M95 307 c-17 -8 -37 -22 -45 -33 -12 -14 -8 -13 17 5 38 26 90 37
130 26 l28 -7 -25 -10 c-14 -6 -37 -10 -52 -9 -14 1 -29 -2 -33 -8 -3 -6 -14
-11 -24 -11 -10 0 -26 -9 -36 -20 -17 -18 -17 -52 1 -111 6 -21 -26 -35 -38
-17 -11 18 -10 72 3 105 8 22 8 25 -2 16 -21 -21 -22 -104 -2 -143 10 -19 24
-34 31 -33 7 2 11 -2 9 -9 -4 -23 64 -49 116 -45 51 4 88 26 121 71 23 31 27
97 10 176 -9 42 -12 45 -49 53 -82 16 -130 17 -160 4z m199 -59 c4 -24 9 -59
12 -79 7 -46 -17 -102 -59 -131 -31 -23 -113 -35 -135 -20 -17 12 -4 44 17 38
51 -14 75 -16 61 -6 -12 7 -8 10 15 10 23 0 27 -3 15 -10 -8 -5 -10 -10 -4
-10 22 0 42 36 49 87 4 29 11 55 16 59 19 11 9 31 -14 27 -27 -5 -57 19 -57
46 0 25 9 31 46 31 30 0 32 -3 38 -42z m-145 5 c-13 -16 -11 -16 14 0 16 10
29 17 30 15 25 -50 36 -64 55 -66 23 -4 29 -17 11 -27 -6 -4 -8 -13 -5 -20 3
-10 -2 -10 -24 -2 -21 8 -36 8 -55 -1 -21 -10 -24 -16 -19 -39 8 -35 20 -48
28 -34 4 6 2 11 -3 11 -6 0 -11 5 -11 12 0 8 7 6 18 -5 15 -15 15 -19 2 -27
-9 -5 -19 -5 -26 1 -8 7 -13 6 -16 -2 -2 -7 -10 -9 -16 -5 -17 10 -15 26 3 26
8 0 15 4 15 9 0 22 -39 -4 -45 -30 -8 -36 -25 -47 -32 -21 -2 11 -14 23 -25
25 -27 7 -15 24 22 32 22 5 30 12 30 29 0 12 9 39 19 59 13 26 15 34 5 26 -11
-9 -14 -9 -14 0 0 23 21 51 37 51 13 0 14 -2 2 -17z m-54 -23 c0 -7 -7 -15
-15 -17 -13 -4 -13 -3 0 6 8 5 11 13 8 16 -13 13 -28 -6 -27 -33 0 -15 3 -21
6 -14 2 6 9 12 15 12 7 0 6 -5 -1 -14 -8 -10 -9 -16 -1 -21 13 -8 13 -45 1
-45 -16 0 -24 22 -12 30 9 5 8 10 -4 20 -18 15 -20 51 -3 68 15 15 33 10 33
-8z m142 -92 c11 -18 12 -67 2 -74 -5 -3 -6 2 -3 10 3 9 2 16 -4 16 -6 0 -12
-6 -14 -12 -3 -7 -5 2 -5 20 0 20 3 28 8 20 4 -7 11 -9 14 -6 13 13 -6 28 -33
27 -15 0 -21 -3 -14 -6 6 -2 12 -9 12 -15 0 -7 -5 -7 -13 1 -8 6 -18 7 -23 3
-4 -4 -2 1 5 11 16 20 56 23 68 5z"/>
</g>
</svg>
