<?xml version="1.0" standalone="no"?>
<!DOCTYPE svg PUBLIC "-//W3C//DTD SVG 20010904//EN"
 "http://www.w3.org/TR/2001/REC-SVG-20010904/DTD/svg10.dtd">
<svg version="1.0" xmlns="http://www.w3.org/2000/svg"
 width="32.000000pt" height="32.000000pt" viewBox="0 0 64.000000 64.000000"
 preserveAspectRatio="xMidYMid meet">

<g transform="translate(0.000000,64.000000) scale(0.100000,-0.100000)"
fill="#000000" stroke="none">
<path d="M248 629 c-25 -14 -23 -33 1 -19 11 5 44 10 75 10 44 0 61 -5 83 -24
35 -30 24 -46 -13 -17 -36 28 -111 29 -147 1 -31 -24 -37 -25 -37 -3 0 15 -1
15 -18 0 -10 -10 -30 -17 -43 -17 -41 0 -49 -18 -49 -106 0 -72 3 -85 20 -97
18 -13 19 -19 10 -67 -23 -123 1 -200 79 -255 62 -44 160 -44 222 0 78 55 102
132 79 255 -9 48 -8 54 10 67 17 12 20 25 20 93 0 100 -4 110 -46 110 -25 0
-38 7 -50 26 -9 14 -30 32 -45 40 -32 16 -125 18 -151 3z m127 -59 c4 -6 -17
-10 -55 -10 -38 0 -59 4 -55 10 3 6 28 10 55 10 27 0 52 -4 55 -10z m145 -115
l0 -85 -50 0 c-27 0 -50 -4 -50 -10 0 -5 4 -10 9 -10 12 0 31 -89 31 -146 0
-57 -20 -96 -63 -123 -68 -42 -168 -17 -202 49 -18 34 -19 99 -4 170 l11 50
47 0 c26 0 52 -5 59 -12 9 -9 15 -9 24 0 7 7 22 12 35 12 13 0 23 5 23 11 0 6
-16 10 -37 8 -21 -1 -82 -1 -135 0 l-98 1 0 85 0 85 200 0 200 0 0 -85z m-344
-127 c-4 -13 -9 -57 -12 -98 -5 -68 -4 -78 17 -109 41 -58 73 -76 139 -76 66
0 98 18 139 76 21 31 22 41 17 109 -3 41 -8 85 -12 98 -4 13 -2 22 4 22 13 0
32 -87 32 -148 0 -59 -24 -107 -73 -146 -35 -28 -46 -31 -107 -31 -61 0 -72 3
-107 31 -49 39 -73 87 -73 146 0 61 19 148 32 148 6 0 8 -9 4 -22z"/>
<path d="M143 455 c-1 -44 2 -59 6 -40 7 34 34 41 39 10 9 -48 21 -32 21 29 0
36 -4 66 -10 66 -5 0 -9 -11 -9 -25 0 -37 -37 -35 -43 3 -2 15 -4 -4 -4 -43z"/>
<path d="M230 455 l0 -65 41 0 c24 0 38 4 34 10 -3 6 -17 10 -31 10 -17 0 -24
5 -24 20 0 12 7 20 18 20 16 1 16 1 0 14 -25 19 -22 36 6 36 14 0 28 5 31 10
4 6 -10 10 -34 10 l-41 0 0 -65z"/>
<path d="M343 506 c12 -10 17 -27 17 -65 0 -28 5 -51 10 -51 6 0 10 23 10 51
0 38 5 55 18 65 15 12 12 13 -28 13 -40 0 -43 -1 -27 -13z"/>
<path d="M437 514 c-4 -4 -7 -31 -7 -60 0 -49 2 -54 26 -60 36 -9 46 6 42 67
-3 49 -5 54 -28 57 -14 2 -29 0 -33 -4z m51 -37 c6 -30 -7 -67 -23 -67 -11 0
-15 12 -15 46 0 38 3 45 17 42 10 -2 19 -11 21 -21z"/>
<path d="M264 291 c-39 -24 -59 -76 -45 -115 15 -37 18 -33 17 20 -1 38 4 50
27 70 35 30 78 31 111 2 40 -35 44 -78 10 -117 -27 -32 -30 -33 -83 -28 -50 5
-54 4 -37 -9 11 -8 36 -14 57 -14 74 0 124 75 95 143 -15 38 -59 67 -98 67
-13 0 -37 -9 -54 -19z"/>
</g>
</svg>
