<?xml version="1.0" standalone="no"?>
<!DOCTYPE svg PUBLIC "-//W3C//DTD SVG 20010904//EN"
 "http://www.w3.org/TR/2001/REC-SVG-20010904/DTD/svg10.dtd">
<svg version="1.0" xmlns="http://www.w3.org/2000/svg"
 width="32.000000pt" height="32.000000pt" viewBox="0 0 32.000000 32.000000"
 preserveAspectRatio="xMidYMid meet">

<g transform="translate(0.000000,32.000000) scale(0.100000,-0.100000)"
fill="#000000" stroke="none">
<path d="M1 274 c0 -27 3 -54 9 -60 5 -5 11 -54 12 -109 2 -81 6 -100 18 -100
12 0 16 19 18 95 2 52 6 98 11 103 4 4 8 -12 7 -37 -1 -35 4 -51 22 -68 30
-31 93 -31 124 0 31 30 31 94 0 124 -28 29 -91 31 -121 4 l-21 -19 -1 59 c-2
56 -2 57 -9 19 l-7 -40 -3 40 -3 40 -7 -40 -7 -40 -2 38 c0 20 -5 37 -11 37
-5 0 -11 -17 -11 -37 l-2 -38 -7 40 -7 40 -2 -51z m213 -64 c26 -25 25 -76 -2
-102 -45 -45 -125 -13 -125 51 0 70 75 100 127 51z m-152 7 c-6 -7 -13 -56
-15 -108 l-3 -94 -2 96 c-1 58 -7 100 -14 107 -9 9 -6 12 16 12 22 0 26 -3 18
-13z"/>
<path d="M110 191 c-12 -23 -13 -31 -2 -31 4 0 12 11 19 25 13 29 -1 34 -17 6z"/>
<path d="M298 308 c-9 -7 -22 -26 -28 -41 -13 -36 -13 -134 0 -142 6 -3 10
-30 10 -60 0 -53 13 -76 31 -58 5 5 8 76 7 162 -3 141 -4 151 -20 139z m11
-150 c-1 -95 -4 -126 -8 -91 -4 29 -12 58 -19 65 -16 16 -15 91 2 133 8 19 17
35 20 35 4 0 5 -64 5 -142z"/>
<path d="M120 270 c-12 -9 -7 -10 18 -5 23 5 44 1 75 -15 l42 -22 -21 22 c-24
25 -92 36 -114 20z"/>
<path d="M207 68 c-33 -18 -44 -19 -75 -10 -44 14 -56 7 -16 -9 38 -14 93 -5
118 21 25 25 21 24 -27 -2z"/>
</g>
</svg>
