<?xml version="1.0" standalone="no"?>
<!DOCTYPE svg PUBLIC "-//W3C//DTD SVG 20010904//EN"
 "http://www.w3.org/TR/2001/REC-SVG-20010904/DTD/svg10.dtd">
<svg version="1.0" xmlns="http://www.w3.org/2000/svg"
 width="32.000000pt" height="32.000000pt" viewBox="0 0 64.000000 64.000000"
 preserveAspectRatio="xMidYMid meet">

<g transform="translate(0.000000,64.000000) scale(0.100000,-0.100000)"
fill="#000000" stroke="none">
<path d="M245 631 c-92 -24 -173 -90 -215 -176 -34 -72 -34 -198 0 -270 31
-64 91 -124 155 -155 69 -33 199 -34 265 -2 71 35 114 75 151 144 31 58 34 70
33 148 0 69 -5 94 -24 135 -31 64 -92 124 -154 153 -53 25 -160 37 -211 23z
m214 -46 c58 -32 101 -76 131 -134 23 -46 37 -121 23 -121 -6 0 -13 18 -17 41
-13 79 -73 160 -151 202 -54 29 -193 31 -245 3 -81 -42 -143 -125 -156 -205
-4 -23 -11 -41 -17 -41 -14 0 0 75 23 120 58 114 159 173 286 167 54 -3 82
-10 123 -32z m-41 -21 l37 -15 -40 -14 c-39 -14 -85 -58 -85 -82 0 -7 -4 -13
-10 -13 -5 0 -10 6 -10 13 0 24 -46 68 -85 82 l-40 13 35 16 c46 20 151 20
198 0z m-193 -48 c42 -18 75 -69 75 -115 l0 -34 -42 58 c-23 32 -43 54 -45 48
-2 -6 12 -34 32 -62 29 -41 33 -51 20 -51 -10 0 -35 17 -56 39 -32 32 -39 46
-39 78 0 35 6 53 17 53 2 0 19 -6 38 -14z m239 -50 c-2 -68 14 -62 24 10 l7
49 27 -36 c34 -43 58 -100 58 -134 l0 -25 -122 1 c-81 1 -112 4 -91 9 40 9 92
42 76 47 -7 3 -23 -3 -35 -11 -45 -32 -50 -17 -13 35 20 28 34 56 32 62 -2 6
-22 -16 -45 -48 l-42 -58 0 34 c0 19 9 49 20 67 19 32 74 65 95 58 6 -2 9 -29
9 -60z m-291 -59 c21 -33 57 -57 100 -67 21 -5 -10 -8 -90 -9 l-123 -1 0 25
c0 34 24 91 58 134 l27 36 5 -46 c3 -25 13 -58 23 -72z m157 -57 c0 -5 -4 -10
-10 -10 -5 0 -10 5 -10 10 0 6 5 10 10 10 6 0 10 -4 10 -10z m286 -82 c-4 -24
-15 -56 -25 -73 l-17 -30 -254 0 -254 0 -17 30 c-10 17 -21 49 -25 73 l-7 42
303 0 303 0 -7 -42z m-490 -149 c16 -17 45 -39 66 -50 42 -22 124 -37 115 -22
-4 6 -24 13 -44 16 -41 7 -133 60 -133 77 0 6 67 10 190 10 123 0 190 -4 190
-10 0 -17 -92 -70 -133 -77 -20 -3 -40 -10 -44 -16 -9 -14 71 0 111 19 17 9
48 32 68 52 21 20 41 33 45 29 11 -11 -44 -62 -100 -93 -46 -26 -62 -29 -137
-29 -69 0 -93 5 -127 23 -47 25 -113 79 -113 93 0 17 16 9 46 -22z"/>
<path d="M125 250 c26 -74 31 -78 48 -39 24 58 29 79 19 79 -5 0 -16 -14 -23
-32 l-13 -32 -13 32 c-19 47 -35 39 -18 -8z"/>
<path d="M212 238 c3 -46 6 -53 26 -56 12 -2 22 1 22 7 0 6 -7 11 -15 11 -8 0
-15 7 -15 15 0 8 7 15 15 15 8 0 15 5 15 10 0 6 -7 10 -15 10 -8 0 -15 5 -15
10 0 6 7 10 15 10 8 0 15 5 15 10 0 6 -11 10 -26 10 -24 0 -25 -2 -22 -52z"/>
<path d="M287 283 c-4 -3 -7 -23 -7 -44 0 -47 29 -69 55 -43 9 9 14 21 12 27
-5 16 -29 21 -25 6 1 -8 -2 -16 -7 -19 -6 -3 -11 10 -13 29 -3 32 -2 33 24 27
24 -6 26 -5 15 8 -14 16 -42 21 -54 9z"/>
<path d="M383 273 c-3 -10 -12 -33 -19 -50 -13 -34 -7 -42 14 -21 10 10 17 10
33 0 12 -8 23 -12 25 -10 6 6 -30 98 -39 98 -4 0 -10 -8 -14 -17z m14 -45 c-3
-8 -6 -5 -6 6 -1 11 2 17 5 13 3 -3 4 -12 1 -19z"/>
<path d="M450 240 c0 -27 5 -50 10 -50 6 0 10 12 10 28 l1 27 20 -27 c30 -40
39 -35 39 22 0 55 -17 69 -22 18 l-3 -33 -18 33 c-25 46 -37 40 -37 -18z"/>
</g>
</svg>
