<?xml version="1.0" standalone="no"?>
<!DOCTYPE svg PUBLIC "-//W3C//DTD SVG 20010904//EN"
 "http://www.w3.org/TR/2001/REC-SVG-20010904/DTD/svg10.dtd">
<svg version="1.0" xmlns="http://www.w3.org/2000/svg"
 width="32.000000pt" height="32.000000pt" viewBox="0 0 64.000000 64.000000"
 preserveAspectRatio="xMidYMid meet">

<g transform="translate(0.000000,64.000000) scale(0.100000,-0.100000)"
fill="#000000" stroke="none">
<path d="M25 630 c-3 -5 18 -33 48 -62 94 -92 165 -247 207 -453 11 -55 24
-103 29 -108 17 -17 29 3 36 56 9 64 28 149 48 202 12 35 18 41 53 46 87 12
158 77 170 154 7 49 -2 155 -14 167 -12 12 -204 -89 -234 -122 -23 -24 -28
-40 -28 -80 0 -27 4 -51 9 -54 4 -3 19 6 32 21 26 27 81 65 114 77 13 5 9 -2
-12 -21 -70 -61 -113 -126 -140 -213 -25 -79 -27 -82 -35 -55 -67 228 -139
364 -229 430 -36 28 -45 30 -54 15z"/>
</g>
</svg>
