<?xml version="1.0" standalone="no"?>
<!DOCTYPE svg PUBLIC "-//W3C//DTD SVG 20010904//EN"
 "http://www.w3.org/TR/2001/REC-SVG-20010904/DTD/svg10.dtd">
<svg version="1.0" xmlns="http://www.w3.org/2000/svg"
 width="20.000000pt" height="32.000000pt" viewBox="0 0 32.000000 32.000000"
 preserveAspectRatio="xMidYMid meet">

<g transform="translate(0.000000,32.000000) scale(0.100000,-0.100000)"
fill="#000000" stroke="none">
<path d="M94 306 c-45 -20 -86 -78 -91 -129 -7 -57 16 -107 63 -143 31 -24 47
-29 95 -29 96 0 154 58 154 155 0 63 -16 95 -67 133 -34 25 -113 32 -154 13z
m144 -29 c14 -15 14 -18 -3 -37 -17 -19 -62 -29 -51 -11 3 4 -1 17 -9 27 -15
19 -15 19 -30 -1 -8 -11 -19 -25 -25 -32 -5 -7 -10 -32 -10 -57 0 -33 -6 -52
-24 -73 -24 -27 -25 -27 -43 -10 -13 13 -18 33 -18 77 0 52 4 63 30 90 17 18
39 36 50 41 30 13 114 4 133 -14z m-68 -47 c0 -11 -4 -20 -10 -20 -5 0 -10 9
-10 20 0 11 5 20 10 20 6 0 10 -9 10 -20z m118 -11 c7 -14 11 -44 9 -72 -4
-40 -11 -56 -41 -85 -34 -34 -41 -37 -96 -37 -43 0 -64 5 -77 18 -17 16 -16
18 3 37 19 20 19 20 46 -5 l27 -25 26 22 c21 18 25 30 25 73 0 38 6 60 21 79
24 31 39 30 57 -5z m-138 -35 c0 -8 -6 -11 -15 -8 -8 4 -15 12 -15 20 0 8 6
11 15 8 8 -4 15 -12 15 -20z m37 -1 c-15 -16 -17 -16 -17 -1 0 9 6 18 13 21
20 7 22 -2 4 -20z m-39 -42 c3 -8 -1 -12 -9 -9 -7 2 -15 10 -17 17 -3 8 1 12
9 9 7 -2 15 -10 17 -17z m52 10 c0 -12 -20 -25 -27 -18 -7 7 6 27 18 27 5 0 9
-4 9 -9z m-50 -57 c0 -8 -6 -11 -15 -8 -8 4 -15 12 -15 20 0 8 6 11 15 8 8 -4
15 -12 15 -20z m37 -1 c-15 -16 -17 -16 -17 -1 0 9 6 18 13 21 20 7 22 -2 4
-20z"/>
</g>
</svg>
