<?xml version="1.0" standalone="no"?>
<!DOCTYPE svg PUBLIC "-//W3C//DTD SVG 20010904//EN"
 "http://www.w3.org/TR/2001/REC-SVG-20010904/DTD/svg10.dtd">
<svg version="1.0" xmlns="http://www.w3.org/2000/svg"
 width="20.000000pt" height="32.000000pt" viewBox="0 0 64.000000 64.000000"
 preserveAspectRatio="xMidYMid meet">

<g transform="translate(0.000000,64.000000) scale(0.100000,-0.100000)"
fill="#000000" stroke="none">
<path d="M134 626 c-10 -7 -36 -19 -56 -25 -47 -15 -68 -44 -68 -92 0 -29 7
-43 31 -63 17 -14 43 -26 57 -26 15 0 36 -7 46 -15 26 -20 81 -19 101 2 46 45
33 128 -22 139 -15 3 -41 17 -57 30 -26 23 -27 26 -11 38 24 17 4 29 -21 12z
m-31 -58 c4 -10 8 -10 15 1 8 11 14 9 31 -8 27 -27 27 -68 -1 -98 -60 -64
-153 22 -102 95 17 24 49 29 57 10z m107 -58 c-6 -11 -13 -20 -15 -20 -3 0 -5
9 -5 20 0 11 7 20 15 20 13 0 14 -4 5 -20z m40 -15 c0 -8 -7 -15 -15 -15 -9 0
-12 6 -9 15 4 8 10 15 15 15 5 0 9 -7 9 -15z m-79 -68 c-16 -16 -25 -1 -10 16
8 8 16 11 18 5 2 -5 -2 -15 -8 -21z m79 23 c0 -5 -4 -10 -9 -10 -6 0 -13 5
-16 10 -3 6 1 10 9 10 9 0 16 -4 16 -10z m-30 -31 c0 -5 -7 -9 -15 -9 -9 0
-12 6 -9 15 6 15 24 11 24 -6z"/>
<path d="M70 547 c0 -22 26 -39 50 -32 25 8 27 27 2 23 -11 -2 -26 3 -35 11
-15 11 -17 11 -17 -2z"/>
<path d="M500 603 c4 -50 2 -53 -30 -47 -36 8 -51 -17 -26 -45 9 -10 16 -30
16 -44 0 -15 5 -27 10 -27 6 0 10 9 10 20 0 13 7 20 19 20 30 0 45 24 29 49
-15 25 -6 36 20 22 25 -13 58 9 49 33 -5 11 -1 16 13 16 11 0 20 6 20 14 0 12
-7 12 -36 4 -25 -7 -40 -6 -47 1 -6 6 -19 11 -30 11 -14 0 -18 -7 -17 -27z
m35 -3 c3 -5 1 -10 -4 -10 -6 0 -11 5 -11 10 0 6 2 10 4 10 3 0 8 -4 11 -10z
m42 -26 c-3 -3 -12 -4 -19 -1 -8 3 -5 6 6 6 11 1 17 -2 13 -5z m-102 -44 c3
-5 1 -10 -4 -10 -6 0 -11 5 -11 10 0 6 2 10 4 10 3 0 8 -4 11 -10z m35 -20 c0
-5 -5 -10 -11 -10 -5 0 -7 5 -4 10 3 6 8 10 11 10 2 0 4 -4 4 -10z"/>
<path d="M260 570 c0 -5 9 -10 20 -10 19 0 20 -7 20 -95 l0 -95 -110 0 c-103
0 -110 1 -110 20 0 30 -17 24 -23 -7 -3 -16 0 -31 6 -35 14 -9 219 -11 241 -2
13 5 16 25 16 120 l0 114 -30 0 c-16 0 -30 -4 -30 -10z"/>
<path d="M342 433 l3 -148 124 -3 124 -3 -6 61 c-5 59 -31 120 -55 128 -7 2
-2 -18 13 -50 14 -29 25 -68 25 -85 l0 -33 -105 0 -105 0 0 131 c0 126 1 130
20 124 27 -9 50 6 24 16 -10 4 -29 8 -42 8 l-23 1 3 -147z"/>
<path d="M390 430 c0 -5 5 -10 10 -10 6 0 10 5 10 10 0 6 -4 10 -10 10 -5 0
-10 -4 -10 -10z"/>
<path d="M480 420 c0 -5 5 -10 10 -10 6 0 10 5 10 10 0 6 -4 10 -10 10 -5 0
-10 -4 -10 -10z"/>
<path d="M435 410 c-3 -5 1 -10 10 -10 9 0 13 5 10 10 -3 6 -8 10 -10 10 -2 0
-7 -4 -10 -10z"/>
<path d="M380 390 c0 -5 5 -10 10 -10 6 0 10 5 10 10 0 6 -4 10 -10 10 -5 0
-10 -4 -10 -10z"/>
<path d="M480 380 c0 -5 5 -10 10 -10 6 0 10 5 10 10 0 6 -4 10 -10 10 -5 0
-10 -4 -10 -10z"/>
<path d="M530 380 c0 -5 5 -10 10 -10 6 0 10 5 10 10 0 6 -4 10 -10 10 -5 0
-10 -4 -10 -10z"/>
<path d="M435 370 c-3 -5 1 -10 10 -10 9 0 13 5 10 10 -3 6 -8 10 -10 10 -2 0
-7 -4 -10 -10z"/>
<path d="M395 351 c-3 -5 -1 -12 5 -16 5 -3 10 1 10 9 0 18 -6 21 -15 7z"/>
<path d="M480 334 c0 -8 5 -12 10 -9 6 4 8 11 5 16 -9 14 -15 11 -15 -7z"/>
<path d="M50 295 c0 -14 5 -25 10 -25 6 0 10 7 10 15 0 12 19 15 115 15 l115
0 0 -115 0 -115 -30 0 c-16 0 -30 -4 -30 -9 0 -10 58 -23 71 -15 5 3 9 66 9
140 l0 134 -135 0 -135 0 0 -25z"/>
<path d="M76 252 c-6 -7 -21 -22 -33 -34 -29 -28 -41 -107 -18 -124 12 -9 25
-10 41 -4 22 9 25 6 37 -38 l14 -47 49 0 49 0 3 63 c3 55 6 64 26 72 30 11 40
38 23 59 -7 9 -18 28 -24 42 -11 25 -15 26 -84 25 -48 0 -76 -5 -83 -14z m71
-11 c20 -6 35 -6 38 0 12 18 35 9 35 -14 0 -12 9 -28 20 -35 23 -14 18 -32
-10 -32 -22 0 -26 -10 -35 -83 -7 -54 -9 -57 -35 -57 -24 0 -29 5 -38 42 -6
24 -18 52 -27 63 -14 19 -16 19 -26 3 -5 -10 -17 -18 -24 -18 -16 0 -20 25 -6
34 5 3 7 15 4 27 -4 15 0 22 16 26 11 3 21 11 21 17 0 12 20 36 30 36 3 0 20
-4 37 -9z"/>
<path d="M165 176 c-13 -9 -26 -11 -42 -5 -29 11 -31 -6 -3 -21 11 -6 20 -21
20 -35 0 -13 5 -27 10 -30 6 -4 10 6 10 24 0 16 7 37 16 45 22 23 14 40 -11
22z"/>
<path d="M340 156 c0 -58 4 -107 8 -110 4 -2 14 0 22 5 12 8 12 12 3 16 -9 3
-13 31 -13 90 l0 85 110 -4 c83 -2 110 0 110 10 0 9 -31 12 -120 12 l-120 0 0
-104z"/>
<path d="M510 202 c-13 -11 -25 -35 -29 -58 -5 -33 -10 -39 -34 -42 -15 -2
-31 -12 -37 -22 -8 -15 -4 -25 21 -49 17 -17 36 -31 44 -31 19 0 38 27 31 45
-6 18 22 35 58 35 59 0 88 79 44 120 -27 25 -69 26 -98 2z m84 -18 c19 -19 21
-58 4 -72 -7 -6 -31 -12 -53 -14 -37 -3 -40 -1 -43 25 -7 60 53 100 92 61z
m-109 -124 c-3 -41 -10 -45 -34 -21 -28 28 -26 39 7 44 15 2 28 5 28 6 1 0 1
-13 -1 -29z"/>
<path d="M534 165 c-26 -19 -11 -31 16 -12 12 8 17 17 12 21 -5 3 -18 -1 -28
-9z"/>
</g>
</svg>
