<?xml version="1.0" standalone="no"?>
<!DOCTYPE svg PUBLIC "-//W3C//DTD SVG 20010904//EN"
 "http://www.w3.org/TR/2001/REC-SVG-20010904/DTD/svg10.dtd">
<svg version="1.0" xmlns="http://www.w3.org/2000/svg"
 width="24.000000pt" height="24.000000pt" viewBox="0 0 24.000000 24.000000"
 preserveAspectRatio="xMidYMid meet">

<g transform="translate(0.000000,24.000000) scale(0.100000,-0.100000)"
fill="#000000" stroke="none">
<path d="M51 226 c-26 -15 -50 -51 -51 -79 -1 -61 67 -110 123 -89 29 11 34
10 69 -25 49 -48 63 -34 15 15 -35 35 -36 40 -25 69 15 40 -4 88 -43 108 -34
18 -57 18 -88 1z m94 -31 c14 -13 25 -36 25 -50 0 -33 -42 -75 -75 -75 -33 0
-75 42 -75 75 0 14 11 37 25 50 31 32 69 32 100 0z"/>
</g>
</svg>
